<svg width="0" height="0" class="hidden">
  <symbol xmlns="http://www.w3.org/2000/svg" viewBox="0 0 48 48" id="icon_checkmark">
    <g fill="none" fill-rule="evenodd" transform="translate(2 2)">
      <circle cx="22" cy="22" r="22"></circle>
      <path d="m11.3829457 21.6774194 7.3720626 7.3225806 14.0946041-14"></path>
    </g>
  </symbol>
  <symbol xmlns="http://www.w3.org/2000/svg" viewBox="0 0 32 32" id="icon_ue_flag">
    <g fill="none" fill-rule="evenodd" transform="translate(1 3)">
      <g fill="currentColor">
        <path d="m4.5 4.5h25.5v18h-25.5z" fill-opacity=".05"></path>
        <path d="m13.5 6c.4142136 0 .75-.33578644.75-.75s-.3357864-.75-.75-.75-.75.33578644-.75.75.3357864.75.75.75z"></path>
        <path d="m13.5 16.5c.4142136 0 .75-.3357864.75-.75s-.3357864-.75-.75-.75-.75.3357864-.75.75.3357864.75.75.75z"></path>
        <path d="m18.75 11.25c.4142136 0 .75-.3357864.75-.75s-.3357864-.75-.75-.75-.75.3357864-.75.75.3357864.75.75.75z" transform="matrix(0 1 -1 0 29.25 -8.25)"></path>
        <path d="m8.25 11.25c.41421356 0 .75-.3357864.75-.75s-.33578644-.75-.75-.75-.75.3357864-.75.75.33578644.75.75.75z" transform="matrix(0 1 -1 0 18.75 2.25)"></path>
        <path d="m17.2123106 14.9623106c.4142136 0 .75-.3357864.75-.75s-.3357864-.75-.75-.75-.75.3357864-.75.75.3357864.75.75.75z" transform="matrix(-.70710678 .70710678 -.70710678 -.70710678 39.432874 12.090991)"></path>
        <path d="m9.7876894 7.5376894c.4142136 0 .75-.33578644.75-.75s-.3357864-.75-.75-.75c-.41421356 0-.75.33578644-.75.75s.33578644.75.75.75z" transform="matrix(-.70710678 .70710678 -.70710678 -.70710678 21.508251 4.666369)"></path>
        <path d="m9.7876894 14.9623106c.4142136 0 .75-.3357864.75-.75s-.3357864-.75-.75-.75c-.41421356 0-.75.3357864-.75.75s.33578644.75.75.75z" transform="matrix(-.70710678 -.70710678 .70710678 -.70710678 6.659009 31.182874)"></path>
        <path d="m17.2123106 7.5376894c.4142136 0 .75-.33578644.75-.75s-.3357864-.75-.75-.75-.75.33578644-.75.75.3357864.75.75.75z" transform="matrix(-.70710678 -.70710678 .70710678 -.70710678 24.583632 23.758252)"></path>
      </g>
      <path d="m.75 1.5h25.3906929v18h-25.3906929z" stroke="currentColor" stroke-linecap="round" stroke-linejoin="round"></path>
      <path d="m.75 0v26.027153" fill="currentColor" stroke="currentColor" stroke-linecap="round" stroke-linejoin="round"></path>
    </g>
  </symbol>
  <symbol xmlns="http://www.w3.org/2000/svg" viewBox="0 0 32 32" id="icon_world">
    <g fill="none" fill-rule="evenodd" transform="translate(1 2)">
	 <circle cx="18" cy="14.368421" fill="currentColor" fill-opacity=".05" r="13"/><g stroke="currentColor"><circle cx="13" cy="13.368421" r="13"/><path d="m17.5454545 4.36842105h-3.4090909l-2.0454545 1.71428572v1.14285714h-2.0454546l-2.0454545 1.14285714v1.14285715h3.4090909l.6818182.5714286h1.3636364l1.3636363 1.1428571h2.7272727l1.3636364 1.1428572 1.3636364-1.1428572h2.7272727"/><path d="m15.5 15.2434211h-1.25l-1.875-1.875h-2.5l-1.875 1.875 1.25 3.125h1.875l1.25 1.25v3.125l.625.625h1.25l1.875-1.875v-1.875l1.875-1.875z"/></g></g>
  </symbol>
  <symbol viewBox="0 0 0 0" id="sprite-icn">
    <symbol version="1.1" id="x-symbol" xmlns="http://www.w3.org/2000/svg" xmlns:xlink="http://www.w3.org/1999/xlink" x="0px" y="0px" xml:space="preserve" viewBox="0 0 460.775 460.775">
      <path d="M285.08,230.397L456.218,59.27c6.076-6.077,6.076-15.911,0-21.986L423.511,4.565c-2.913-2.911-6.866-4.55-10.992-4.55
	c-4.127,0-8.08,1.639-10.993,4.55l-171.138,171.14L59.25,4.565c-2.913-2.911-6.866-4.55-10.993-4.55
	c-4.126,0-8.08,1.639-10.992,4.55L4.558,37.284c-6.077,6.075-6.077,15.909,0,21.986l171.138,171.128L4.575,401.505
	c-6.074,6.077-6.074,15.911,0,21.986l32.709,32.719c2.911,2.911,6.865,4.55,10.992,4.55c4.127,0,8.08-1.639,10.994-4.55
	l171.117-171.12l171.118,171.12c2.913,2.911,6.866,4.55,10.993,4.55c4.128,0,8.081-1.639,10.992-4.55l32.709-32.719
	c6.074-6.075,6.074-15.909,0-21.986L285.08,230.397z"></path>
      <g></g>
      <g></g>
      <g></g>
      <g></g>
      <g></g>
      <g></g>
      <g></g>
      <g></g>
      <g></g>
      <g></g>
      <g></g>
      <g></g>
      <g></g>
      <g></g>
      <g></g>
    </symbol>
  </symbol>
  <symbol version="1.1" id="x-symbol" xmlns="http://www.w3.org/2000/svg" xmlns:xlink="http://www.w3.org/1999/xlink" x="0px" y="0px" xml:space="preserve" viewBox="0 0 460.775 460.775">
    <path d="M285.08,230.397L456.218,59.27c6.076-6.077,6.076-15.911,0-21.986L423.511,4.565c-2.913-2.911-6.866-4.55-10.992-4.55
	c-4.127,0-8.08,1.639-10.993,4.55l-171.138,171.14L59.25,4.565c-2.913-2.911-6.866-4.55-10.993-4.55
	c-4.126,0-8.08,1.639-10.992,4.55L4.558,37.284c-6.077,6.075-6.077,15.909,0,21.986l171.138,171.128L4.575,401.505
	c-6.074,6.077-6.074,15.911,0,21.986l32.709,32.719c2.911,2.911,6.865,4.55,10.992,4.55c4.127,0,8.08-1.639,10.994-4.55
	l171.117-171.12l171.118,171.12c2.913,2.911,6.866,4.55,10.993,4.55c4.128,0,8.081-1.639,10.992-4.55l32.709-32.719
	c6.074-6.075,6.074-15.909,0-21.986L285.08,230.397z"></path>
    <g></g>
    <g></g>
    <g></g>
    <g></g>
    <g></g>
    <g></g>
    <g></g>
    <g></g>
    <g></g>
    <g></g>
    <g></g>
    <g></g>
    <g></g>
    <g></g>
    <g></g>
  </symbol>
</svg>