<svg width="0" height="0" class="hidden">
  <symbol xmlns="http://www.w3.org/2000/svg" viewBox="0 0 48 48" id="icon_checkmark">
    <g fill="none" fill-rule="evenodd" transform="translate(2 2)">
      <circle cx="22" cy="22" r="22"></circle>
      <path d="m11.3829457 21.6774194 7.3720626 7.3225806 14.0946041-14"></path>
    </g>
  </symbol>
  <symbol xmlns="http://www.w3.org/2000/svg" viewBox="0 0 32 32" id="icon_ue_flag">
    <g fill="none" fill-rule="evenodd" transform="translate(1 3)">
      <g fill="currentColor">
        <path d="m4.5 4.5h25.5v18h-25.5z" fill-opacity=".05"></path>
        <path d="m13.5 6c.4142136 0 .75-.33578644.75-.75s-.3357864-.75-.75-.75-.75.33578644-.75.75.3357864.75.75.75z"></path>
        <path d="m13.5 16.5c.4142136 0 .75-.3357864.75-.75s-.3357864-.75-.75-.75-.75.3357864-.75.75.3357864.75.75.75z"></path>
        <path d="m18.75 11.25c.4142136 0 .75-.3357864.75-.75s-.3357864-.75-.75-.75-.75.3357864-.75.75.3357864.75.75.75z" transform="matrix(0 1 -1 0 29.25 -8.25)"></path>
        <path d="m8.25 11.25c.41421356 0 .75-.3357864.75-.75s-.33578644-.75-.75-.75-.75.3357864-.75.75.33578644.75.75.75z" transform="matrix(0 1 -1 0 18.75 2.25)"></path>
        <path d="m17.2123106 14.9623106c.4142136 0 .75-.3357864.75-.75s-.3357864-.75-.75-.75-.75.3357864-.75.75.3357864.75.75.75z" transform="matrix(-.70710678 .70710678 -.70710678 -.70710678 39.432874 12.090991)"></path>
        <path d="m9.7876894 7.5376894c.4142136 0 .75-.33578644.75-.75s-.3357864-.75-.75-.75c-.41421356 0-.75.33578644-.75.75s.33578644.75.75.75z" transform="matrix(-.70710678 .70710678 -.70710678 -.70710678 21.508251 4.666369)"></path>
        <path d="m9.7876894 14.9623106c.4142136 0 .75-.3357864.75-.75s-.3357864-.75-.75-.75c-.41421356 0-.75.3357864-.75.75s.33578644.75.75.75z" transform="matrix(-.70710678 -.70710678 .70710678 -.70710678 6.659009 31.182874)"></path>
        <path d="m17.2123106 7.5376894c.4142136 0 .75-.33578644.75-.75s-.3357864-.75-.75-.75-.75.33578644-.75.75.3357864.75.75.75z" transform="matrix(-.70710678 -.70710678 .70710678 -.70710678 24.583632 23.758252)"></path>
      </g>
      <path d="m.75 1.5h25.3906929v18h-25.3906929z" stroke="currentColor" stroke-linecap="round" stroke-linejoin="round"></path>
      <path d="m.75 0v26.027153" fill="currentColor" stroke="currentColor" stroke-linecap="round" stroke-linejoin="round"></path>
    </g>
  </symbol>
  <symbol xmlns="http://www.w3.org/2000/svg" viewBox="0 0 32 32" id="icon_world">
    <g fill="none" fill-rule="evenodd" transform="translate(1 2)">
	 <circle cx="18" cy="14.368421" fill="currentColor" fill-opacity=".05" r="13"/><g stroke="currentColor"><circle cx="13" cy="13.368421" r="13"/><path d="m17.5454545 4.36842105h-3.4090909l-2.0454545 1.71428572v1.14285714h-2.0454546l-2.0454545 1.14285714v1.14285715h3.4090909l.6818182.5714286h1.3636364l1.3636363 1.1428571h2.7272727l1.3636364 1.1428572 1.3636364-1.1428572h2.7272727"/><path d="m15.5 15.2434211h-1.25l-1.875-1.875h-2.5l-1.875 1.875 1.25 3.125h1.875l1.25 1.25v3.125l.625.625h1.25l1.875-1.875v-1.875l1.875-1.875z"/></g></g>
  </symbol>
  <symbol xmlns="http://www.w3.org/2000/svg" viewBox="0 0 973.1 973.1" id="questionMark">
	<g>
	<path fill="#fff" stroke="#fff" d="M502.29,788.199h-47c-33.1,0-60,26.9-60,60v64.9c0,33.1,26.9,60,60,60h47c33.101,0,60-26.9,60-60v-64.9
		C562.29,815,535.391,788.199,502.29,788.199z"/>
	<path fill="#fff" stroke="#fff"  d="M170.89,285.8l86.7,10.8c27.5,3.4,53.6-12.4,63.5-38.3c12.5-32.7,29.9-58.5,52.2-77.3c31.601-26.6,70.9-40,117.9-40
		c48.7,0,87.5,12.8,116.3,38.3c28.8,25.6,43.1,56.2,43.1,92.1c0,25.8-8.1,49.4-24.3,70.8c-10.5,13.6-42.8,42.2-96.7,85.9
		c-54,43.7-89.899,83.099-107.899,118.099c-18.4,35.801-24.8,75.5-26.4,115.301c-1.399,34.1,25.8,62.5,60,62.5h49
		c31.2,0,57-23.9,59.8-54.9c2-22.299,5.7-39.199,11.301-50.699c9.399-19.701,33.699-45.701,72.699-78.1
		C723.59,477.8,772.79,428.4,795.891,392c23-36.3,34.6-74.8,34.6-115.5c0-73.5-31.3-138-94-193.4c-62.6-55.4-147-83.1-253-83.1
		c-100.8,0-182.1,27.3-244.1,82c-52.8,46.6-84.9,101.8-96.2,165.5C139.69,266.1,152.39,283.5,170.89,285.8z"/>
</g>
  </symbol>
</svg>